<svg width="22" height="14" viewBox="0 0 22 14" fill="none" xmlns="http://www.w3.org/2000/svg">
<g clip-path="url(#clip0_1410_62)">
<path d="M3.47083 3.6225C3.52506 3.67717 3.58958 3.72057 3.66066 3.75019C3.73175 3.7798 3.80799 3.79505 3.885 3.79505C3.96201 3.79505 4.03825 3.7798 4.10933 3.75019C4.18042 3.72057 4.24494 3.67717 4.29917 3.6225L6.41667 1.505V13.4167C6.41667 13.5714 6.47812 13.7197 6.58752 13.8291C6.69692 13.9385 6.84529 14 7 14V14C7.15471 14 7.30308 13.9385 7.41248 13.8291C7.52187 13.7197 7.58333 13.5714 7.58333 13.4167V1.51083L9.695 3.6225C9.745 3.69086 9.80928 3.74752 9.88339 3.78853C9.95749 3.82954 10.0396 3.85392 10.1241 3.85998C10.2086 3.86604 10.2934 3.85363 10.3726 3.82361C10.4518 3.79359 10.5235 3.74669 10.5827 3.68616C10.642 3.62563 10.6873 3.55293 10.7156 3.4731C10.7439 3.39327 10.7545 3.30824 10.7467 3.22391C10.7388 3.13958 10.7126 3.05798 10.67 2.98477C10.6274 2.91157 10.5694 2.84852 10.5 2.8L8.21333 0.513332C7.88521 0.185615 7.44042 0.00153923 6.97667 0.00153923C6.51291 0.00153923 6.06812 0.185615 5.74 0.513332L3.45333 2.8C3.34698 2.91159 3.28912 3.06074 3.2924 3.21486C3.29568 3.36898 3.35983 3.51553 3.47083 3.6225Z" fill="#C1C1C1"/>
</g>
<g clip-path="url(#clip1_1410_62)">
<path d="M11.4708 10.3775C11.5251 10.3228 11.5896 10.2794 11.6607 10.2498C11.7317 10.2202 11.808 10.205 11.885 10.205C11.962 10.205 12.0383 10.2202 12.1093 10.2498C12.1804 10.2794 12.2449 10.3228 12.2992 10.3775L14.4167 12.495V0.583333C14.4167 0.428624 14.4781 0.280251 14.5875 0.170854C14.6969 0.0614582 14.8453 0 15 0V0C15.1547 0 15.3031 0.0614582 15.4125 0.170854C15.5219 0.280251 15.5833 0.428624 15.5833 0.583333V12.4892L17.695 10.3775C17.745 10.3091 17.8093 10.2525 17.8834 10.2115C17.9575 10.1705 18.0396 10.1461 18.1241 10.14C18.2086 10.134 18.2934 10.1464 18.3726 10.1764C18.4518 10.2064 18.5235 10.2533 18.5827 10.3138C18.642 10.3744 18.6873 10.4471 18.7156 10.5269C18.7439 10.6067 18.7545 10.6918 18.7467 10.7761C18.7388 10.8604 18.7126 10.942 18.67 11.0152C18.6274 11.0884 18.5694 11.1515 18.5 11.2L16.2133 13.4867C15.8852 13.8144 15.4404 13.9985 14.9767 13.9985C14.5129 13.9985 14.0681 13.8144 13.74 13.4867L11.4533 11.2C11.347 11.0884 11.2891 10.9393 11.2924 10.7851C11.2957 10.631 11.3598 10.4845 11.4708 10.3775Z" fill="#C1C1C1"/>
</g>
<defs>
<clipPath id="clip0_1410_62">
<rect width="14" height="14" fill="white" transform="matrix(-1 0 0 -1 14 14)"/>
</clipPath>
<clipPath id="clip1_1410_62">
<rect width="14" height="14" fill="white" transform="matrix(-1 0 0 1 22 0)"/>
</clipPath>
</defs>
</svg>
