<svg width="48" height="61" viewBox="0 0 48 61" fill="none" xmlns="http://www.w3.org/2000/svg">
<g clip-path="url(#clip0_6936_13644)">
<path d="M27.5671 16.0869V0.149414H3.08789C1.46003 0.149414 0.150391 1.40332 0.150391 2.96191V57.3369C0.150391 58.8955 1.46003 60.1494 3.08789 60.1494H44.2129C45.8408 60.1494 47.1504 58.8955 47.1504 57.3369V18.8994H30.5046C28.8889 18.8994 27.5671 17.6338 27.5671 16.0869ZM35.5448 41.4006H27.5671V50.7756C27.5671 51.8115 26.6907 52.6506 25.6087 52.6506H21.6921C20.6101 52.6506 19.7337 51.8115 19.7337 50.7756V41.4006H11.756C10.0082 41.4006 9.13547 39.3744 10.3766 38.1943L22.178 26.9795C22.9919 26.2049 24.3064 26.2049 25.1204 26.9795L36.9218 38.1943C38.1641 39.3744 37.2926 41.4006 35.5448 41.4006ZM46.2936 12.4541L34.3111 0.969727C33.7603 0.442383 33.0137 0.149414 32.2303 0.149414H31.4837V15.1494H47.1504V14.4346C47.1504 13.6963 46.8444 12.9814 46.2936 12.4541Z" fill="#019d52"/>
</g>
<defs>
<clipPath id="clip0_6936_13644">
<rect width="47" height="60" fill="white" transform="translate(0.149414 0.149292)"/>
</clipPath>
</defs>
</svg>
