<svg width="12" height="17" viewBox="0 0 12 17" fill="none" xmlns="http://www.w3.org/2000/svg">
<path d="M11.7599 11.9835C11.7599 11.5493 11.4901 11.177 11.1094 11.0252C11.2327 10.8553 11.3055 10.6465 11.3055 10.4209C11.3055 9.85239 10.8429 9.38983 10.2744 9.38983H9.7544V8.85833C9.7544 8.2898 9.29184 7.82723 8.72327 7.82723H8.49562V7.38998C10.168 7.05242 11.4312 5.57158 11.4312 3.80117C11.4312 1.78239 9.78887 0.140015 7.77012 0.140015C5.75137 0.140015 4.10902 1.78239 4.10902 3.80117C4.10902 5.57189 5.37268 7.05295 7.04556 7.39014V7.82723H6.20137C5.83577 7.82723 5.52193 7.91914 5.2134 8.11661L3.80902 9.0178H2.75905V8.82201C2.75905 8.68405 2.64721 8.5722 2.50924 8.5722H0.455867C0.317899 8.5722 0.206055 8.68405 0.206055 8.82201C0.206055 8.95998 0.317899 9.07183 0.455867 9.07183H2.2594V14.8952H0.455867C0.317899 14.8952 0.206055 15.0071 0.206055 15.145C0.206055 15.283 0.317899 15.3949 0.455867 15.3949H2.50921C2.64718 15.3949 2.75902 15.283 2.75902 15.145V14.9493H3.80899L5.21362 15.8506C5.52193 16.0479 5.83577 16.1399 6.20134 16.1399H9.59762C10.1661 16.1399 10.6287 15.6773 10.6287 15.1087C10.6287 14.9067 10.5703 14.718 10.4695 14.5587C10.9451 14.4673 11.3055 14.048 11.3055 13.5461C11.3055 13.3206 11.2327 13.1118 11.1094 12.9419C11.4901 12.7901 11.7599 12.4177 11.7599 11.9835ZM8.72327 8.32686C9.01634 8.32686 9.25477 8.56527 9.25477 8.85833V9.38983H8.49562V8.32686H8.72327ZM4.60862 3.80117C4.60862 2.05789 6.02687 0.63964 7.77015 0.63964C9.51343 0.63964 10.9316 2.05789 10.9316 3.80117C10.9316 5.54442 9.5134 6.96267 7.77015 6.96267C6.0269 6.96267 4.60862 5.54442 4.60862 3.80117ZM7.77015 7.4623C7.84602 7.4623 7.9213 7.4597 7.99605 7.45514V9.38983H7.54515V7.4552C7.61959 7.4597 7.69459 7.4623 7.77015 7.4623ZM10.7288 12.515H10.2744H8.61168C8.47371 12.515 8.36187 12.6268 8.36187 12.7648C8.36187 12.9028 8.47371 13.0146 8.61168 13.0146H10.2744C10.5674 13.0146 10.8059 13.253 10.8059 13.5461C10.8059 13.8392 10.5674 14.0776 10.2744 14.0776H9.78449H9.59762H8.61168C8.47371 14.0776 8.36187 14.1894 8.36187 14.3274C8.36187 14.4654 8.47371 14.5772 8.61168 14.5772H9.59762C9.89068 14.5772 10.1291 14.8156 10.1291 15.1087C10.1291 15.4018 9.89068 15.6402 9.59762 15.6402H6.20134C5.93187 15.6402 5.71034 15.5753 5.48318 15.43L4.01715 14.4892C3.9769 14.4634 3.93009 14.4496 3.88224 14.4496H2.75902V9.51742H3.88224C3.93009 9.51742 3.9769 9.5037 4.01715 9.47783L5.48293 8.53723C5.71027 8.39173 5.93184 8.32686 6.20134 8.32686H7.04552V9.38983H6.11274C5.97477 9.38983 5.86293 9.50167 5.86293 9.63964C5.86293 9.77761 5.97477 9.88945 6.11274 9.88945H9.50459H10.2744C10.5674 9.88945 10.8059 10.1279 10.8059 10.4209C10.8059 10.714 10.5675 10.9524 10.2744 10.9524H8.61168C8.47371 10.9524 8.36187 11.0643 8.36187 11.2022C8.36187 11.3402 8.47371 11.452 8.61168 11.452H10.2744H10.7288C11.0219 11.452 11.2603 11.6905 11.2603 11.9835C11.2603 12.2766 11.0219 12.515 10.7288 12.515ZM8.01996 5.85092V5.40448H8.34152C8.8788 5.40448 9.31593 4.9888 9.31593 4.47792C9.31593 3.96705 8.87884 3.55136 8.34152 3.55136H8.01996V2.69739H9.06612C9.20409 2.69739 9.31593 2.58555 9.31593 2.44758C9.31593 2.30961 9.20409 2.19776 9.06612 2.19776H8.01996V1.7522C8.01996 1.61423 7.90812 1.50239 7.77015 1.50239C7.63218 1.50239 7.52034 1.61423 7.52034 1.7522V2.19776H7.19965C6.66237 2.19776 6.22524 2.61345 6.22524 3.12436C6.22524 3.63526 6.66237 4.05095 7.19965 4.05095H7.52034V4.90483H6.47505C6.33709 4.90483 6.22524 5.01667 6.22524 5.15464C6.22524 5.29261 6.33709 5.40445 6.47505 5.40445H7.52034V5.85089C7.52034 5.98886 7.63218 6.1007 7.77015 6.1007C7.90812 6.1007 8.01996 5.98889 8.01996 5.85092ZM7.19968 3.55136C6.93787 3.55136 6.72487 3.35983 6.72487 3.12439C6.72487 2.88895 6.93787 2.69742 7.19968 2.69742H7.52037V3.55136H7.19968ZM8.01996 4.05098H8.34152C8.6033 4.05098 8.8163 4.24251 8.8163 4.47792C8.8163 4.71333 8.6033 4.90486 8.34152 4.90486H8.01996V4.05098ZM3.3348 5.55508V3.96148C3.3348 3.84064 3.43277 3.74267 3.55359 3.74267C3.6744 3.74267 3.77237 3.84064 3.77237 3.96148V5.55508C3.77237 5.67592 3.6744 5.77389 3.55359 5.77389C3.43277 5.77389 3.3348 5.67592 3.3348 5.55508ZM11.1815 6.19905C11.3023 6.19905 11.4002 6.29701 11.4002 6.41786V8.1798C11.4002 8.30064 11.3023 8.39861 11.1815 8.39861C11.0606 8.39861 10.9627 8.30064 10.9627 8.1798V6.41786C10.9627 6.29701 11.0606 6.19905 11.1815 6.19905ZM4.3588 7.99555C4.23796 7.99555 4.14002 7.89758 4.14002 7.77673V6.78283C4.14002 6.66198 4.23799 6.56401 4.3588 6.56401C4.47962 6.56401 4.57759 6.66198 4.57759 6.78283V7.77673C4.57762 7.89761 4.47965 7.99555 4.3588 7.99555Z" fill="white" stroke="white" stroke-width="0.2"/>
</svg>
