<svg width="16" height="17" viewBox="0 0 16 17" fill="none" xmlns="http://www.w3.org/2000/svg">
<path d="M12.4734 5.75897C12.4114 5.69648 12.3376 5.64688 12.2564 5.61304C12.1752 5.57919 12.088 5.56177 12 5.56177C11.912 5.56177 11.8249 5.57919 11.7436 5.61304C11.6624 5.64688 11.5887 5.69648 11.5267 5.75897L8.47335 8.8123C8.41138 8.87479 8.33764 8.92438 8.2564 8.95823C8.17516 8.99207 8.08803 9.0095 8.00002 9.0095C7.91201 9.0095 7.82487 8.99207 7.74364 8.95823C7.6624 8.92438 7.58866 8.87479 7.52669 8.8123L4.47335 5.75897C4.41138 5.69648 4.33764 5.64688 4.2564 5.61304C4.17516 5.57919 4.08803 5.56177 4.00002 5.56177C3.91201 5.56177 3.82487 5.57919 3.74364 5.61304C3.6624 5.64688 3.58866 5.69648 3.52669 5.75897C3.40252 5.88387 3.33282 6.05284 3.33282 6.22897C3.33282 6.40509 3.40252 6.57406 3.52669 6.69897L6.58669 9.75897C6.96169 10.1335 7.47002 10.3439 8.00002 10.3439C8.53002 10.3439 9.03835 10.1335 9.41335 9.75897L12.4734 6.69897C12.5975 6.57406 12.6672 6.40509 12.6672 6.22897C12.6672 6.05284 12.5975 5.88387 12.4734 5.75897Z" fill="white"/>
</svg>
